<svg xmlns="http://www.w3.org/2000/svg" width="32" height="32" viewBox="0 0 21 21" fill="none"><path fill-rule="evenodd" clip-rule="evenodd" d="M15.1281 18.8177C10.3075 21.6006 4.13403 19.9463 1.35112 15.1273C-1.43179 10.3068 0.222555 4.1333 5.0431 1.35039C9.86364 -1.43088 16.0371 0.221828 18.8184 5.04237C18.8626 5.11772 19.2476 5.78273 19.2639 5.9367L15.5245 8.0808V8.08736L6.52055 13.301C6.52055 13.301 6.11925 10.0316 8.30757 8.3871C9.51803 7.47803 11.8194 6.15947 13.2166 5.38471C11.4541 4.12675 9.07414 3.81062 7.14789 4.92116C4.4649 6.47068 3.30685 10.3003 4.85637 12.9832C6.40589 15.6646 10.3829 16.9488 13.0642 15.3993C13.9356 14.8964 15.5392 13.6958 16.2484 11.8727C17.228 9.3617 18.1681 8.58694 20.4204 7.67786C21.0952 11.7089 18.8725 16.6539 15.1264 18.8161" fill="#C88D5E"/></svg>